<svg id="Ebene_1" data-name="Ebene 1" xmlns="http://www.w3.org/2000/svg" viewBox="0 0 441.94 231.92"><defs><style>.cls-1{fill:#203669;}.cls-2{fill:#e9551d;}</style></defs><title>velafrica_logo_claim</title><path class="cls-1" d="M74.86,300.12V276.71h7.76l6.14,17.79,6.07-17.79h7.76v23.41H97.78V280L90.9,300.12H86.34L79.46,280v20.07h-4.6Z" transform="translate(-74.86 -75.78)"/><path class="cls-1" d="M107,291.24c0-5.76,3.83-9.09,9.23-9.09,5.72,0,9.23,3.23,9.23,9.09,0,5.69-3.47,9.26-9.23,9.26a11.32,11.32,0,0,1-3.9-.63C108.91,298.54,107,295.49,107,291.24Zm9.23,6c3.09,0,4-3,4-6,0-2.7-.88-5.79-4-5.79s-4,3.12-4,5.79a9,9,0,0,0,.88,4.07A3.5,3.5,0,0,0,116.24,297.21Z" transform="translate(-74.86 -75.78)"/><path class="cls-1" d="M129.55,300.12v-25.3h4.84v10.6a5.66,5.66,0,0,1,5.33-3.26c5.33,0,7.3,4.39,7.3,9.09s-2,9.26-7.41,9.26a5.82,5.82,0,0,1-5.58-3.26L134,300.12h-4.42Zm8.49-3c3.19,0,3.79-3.33,3.79-5.86s-0.56-5.69-3.75-5.69-3.83,3.26-3.83,5.69a9.26,9.26,0,0,0,.77,3.86A3.27,3.27,0,0,0,138,297.1Z" transform="translate(-74.86 -75.78)"/><path class="cls-1" d="M151.13,279.24v-3.9H156v3.9h-4.84Zm0,20.88V282.5H156v17.62h-4.84Z" transform="translate(-74.86 -75.78)"/><path class="cls-1" d="M161.06,300.12v-25.3h4.84v25.3h-4.84Z" transform="translate(-74.86 -75.78)"/><path class="cls-1" d="M171,279.24v-3.9h4.84v3.9H171Zm0,20.88V282.5h4.84v17.62H171Z" transform="translate(-74.86 -75.78)"/><path class="cls-1" d="M191.32,299.84a13,13,0,0,1-4,.67c-4,0-5-2.56-5-6.25v-8.56h-3.16V282.5h3.16v-3.58l4.84-1.58v5.16h3.93v3.19h-3.93v8.63c0,1.51.39,2.67,2.11,2.67a5.25,5.25,0,0,0,1.93-.39Z" transform="translate(-74.86 -75.78)"/><path class="cls-1" d="M205.53,300.12l-0.11-2.6a6.33,6.33,0,0,1-5.75,3c-3.23,0-6-1.89-6-5.4,0-4.67,4.49-5.93,9.44-5.93,0.67,0,1.44,0,2.11.07v-0.6c0-2.49-1.51-3.44-4.18-3.44a11.52,11.52,0,0,0-5.16,1.33l-0.21-3.23a17.1,17.1,0,0,1,6.07-1.16c4.74,0,8.14,1.68,8.14,6.84v7a34.52,34.52,0,0,0,.18,4.14h-4.56Zm-8.35-20.88v-3.9h3.75v3.9h-3.75Zm7.09,12.49c-2.84,0-5.93.53-5.93,3.16a2.4,2.4,0,0,0,2.6,2.6c2.95,0,4.32-2.42,4.32-5v-0.74h-1Zm-0.35-12.49v-3.9h3.75v3.9h-3.75Z" transform="translate(-74.86 -75.78)"/><path class="cls-1" d="M225.26,299.84a13,13,0,0,1-4,.67c-4,0-5-2.56-5-6.25v-8.56h-3.16V282.5h3.16v-3.58l4.84-1.58v5.16H225v3.19h-3.93v8.63c0,1.51.39,2.67,2.11,2.67a5.25,5.25,0,0,0,1.93-.39Z" transform="translate(-74.86 -75.78)"/><path class="cls-1" d="M239.9,300.12V286.43a36.78,36.78,0,0,0-.18-3.93h4.56l0.07,2.95a5.76,5.76,0,0,1,5.54-3.3,5.16,5.16,0,0,1,5.23,3.47,5.94,5.94,0,0,1,5.44-3.47c4.21,0,5.72,2.74,5.72,6.56v11.41h-4.84v-11c0-1.86-.56-3.51-2.7-3.51-2.46,0-3.26,2.49-3.26,4.74v9.76h-4.81v-11c0-1.86-.49-3.51-2.67-3.51-2.46,0-3.26,2.49-3.26,4.74v9.76H239.9Z" transform="translate(-74.86 -75.78)"/><path class="cls-1" d="M271.38,279.24v-3.9h4.84v3.9h-4.84Zm0,20.88V282.5h4.84v17.62h-4.84Z" transform="translate(-74.86 -75.78)"/><path class="cls-1" d="M291.7,299.84a13,13,0,0,1-4,.67c-4,0-5-2.56-5-6.25v-8.56h-3.16V282.5h3.16v-3.58l4.84-1.58v5.16h3.93v3.19h-3.93v8.63c0,1.51.39,2.67,2.11,2.67a5.25,5.25,0,0,0,1.93-.39Z" transform="translate(-74.86 -75.78)"/><path class="cls-1" d="M306.69,300.12V276.71H315c4.95,0,9.37,1.89,9.37,7.19s-4.42,7.58-9.33,7.58h-3.23v8.63h-5.09ZM311.74,288h1.83c2.81,0,5.54-.53,5.54-4,0-2.77-2-3.76-5.23-3.76h-2.14V288Z" transform="translate(-74.86 -75.78)"/><path class="cls-1" d="M330.66,292.36c0.11,3.05,2,4.91,5.79,4.91a10.5,10.5,0,0,0,4.84-1.16l0.21,3.37a16,16,0,0,1-5.62,1c-6.49,0-10-3.4-10-9.26,0-5.23,3.54-9.09,8.74-9.09,5.65,0,7.76,3.72,7.76,9.05v1.16H330.66Zm7.41-2.74c0-2.21-.7-4.56-3.37-4.56s-3.93,2.32-4,4.56h7.41Z" transform="translate(-74.86 -75.78)"/><path class="cls-1" d="M346.42,300.12V286.43a36.13,36.13,0,0,0-.18-3.9h4.56l0.11,3.4c0.84-1.93,2.56-3.83,4.95-3.83a4.53,4.53,0,0,1,1.4.18l-0.14,4.35a4.25,4.25,0,0,0-1.51-.25c-3.23,0-4.35,3.12-4.35,5.86v7.86h-4.84Z" transform="translate(-74.86 -75.78)"/><path class="cls-1" d="M360.18,296a10.39,10.39,0,0,0,4.84,1.19c1.86,0,3.05-.53,3.05-2,0-3-8.21-1.93-8.21-7.65,0-4,4-5.37,7.27-5.37a18.58,18.58,0,0,1,4.84.67l-0.21,3.51a11.57,11.57,0,0,0-4.35-.84c-1.23,0-2.88.28-2.88,1.79,0,2.77,8.14,1.44,8.14,7.54,0,4.25-3.83,5.72-7.37,5.72a15.33,15.33,0,0,1-5.33-.84Z" transform="translate(-74.86 -75.78)"/><path class="cls-1" d="M377,307.7V287.62c0-2.11-.07-3.61-0.18-5.12h4.6l0.11,3a6.13,6.13,0,0,1,5.65-3.33c5.33,0,7.3,4.39,7.3,9.09s-2,9.26-7.41,9.26a5.49,5.49,0,0,1-5.23-3.23V307.7H377Zm8.49-10.6c3.19,0,3.79-3.33,3.79-5.86s-0.56-5.69-3.75-5.69-3.83,3.26-3.83,5.69a9.26,9.26,0,0,0,.77,3.86A3.27,3.27,0,0,0,385.49,297.1Z" transform="translate(-74.86 -75.78)"/><path class="cls-1" d="M402.3,292.36c0.11,3.05,2,4.91,5.79,4.91a10.49,10.49,0,0,0,4.84-1.16l0.21,3.37a16,16,0,0,1-5.62,1c-6.49,0-10-3.4-10-9.26,0-5.23,3.55-9.09,8.74-9.09,5.65,0,7.76,3.72,7.76,9.05v1.16H402.3Zm7.41-2.74c0-2.21-.7-4.56-3.37-4.56s-3.93,2.32-4,4.56h7.41Z" transform="translate(-74.86 -75.78)"/><path class="cls-1" d="M418.06,300.12v-25.3h4.84v14.92l6.39-7.23h5.65l-7.16,7.86,7.86,9.76h-5.9l-6.84-8.95v8.95h-4.84Z" transform="translate(-74.86 -75.78)"/><path class="cls-1" d="M449.05,299.84a13,13,0,0,1-4,.67c-4,0-5-2.56-5-6.25v-8.56h-3.16V282.5H440v-3.58l4.84-1.58v5.16h3.93v3.19h-3.93v8.63c0,1.51.39,2.67,2.11,2.67a5.25,5.25,0,0,0,1.93-.39Z" transform="translate(-74.86 -75.78)"/><path class="cls-1" d="M452.67,279.24v-3.9h4.84v3.9h-4.84Zm0,20.88V282.5h4.84v17.62h-4.84Z" transform="translate(-74.86 -75.78)"/><path class="cls-1" d="M466.22,300.12L460.6,282.5h5.09l3.72,14,3.68-14h4.84l-5.65,17.62h-6.07Z" transform="translate(-74.86 -75.78)"/><path class="cls-1" d="M484.78,292.36c0.11,3.05,2,4.91,5.79,4.91a10.5,10.5,0,0,0,4.84-1.16l0.21,3.37a16,16,0,0,1-5.62,1c-6.49,0-10-3.4-10-9.26,0-5.23,3.54-9.09,8.74-9.09,5.65,0,7.76,3.72,7.76,9.05v1.16H484.78Zm7.41-2.74c0-2.21-.7-4.56-3.37-4.56s-3.93,2.32-4,4.56h7.41Z" transform="translate(-74.86 -75.78)"/><path class="cls-1" d="M500.55,300.12V286.43a36.78,36.78,0,0,0-.18-3.93h4.56l0.07,2.95a6.05,6.05,0,0,1,5.72-3.3c4.25,0,6,2.53,6,6.56v11.41h-4.84V289.83c0-2.11-.32-4.21-2.95-4.21s-3.51,2.46-3.51,4.77v9.72h-4.84Z" transform="translate(-74.86 -75.78)"/><path class="cls-2" d="M514.17,234c-11.66,0-16.45-12.66-17.63-26.12,4.54-7.44,7.73-15.28,8.89-21.71,1.19-6.63,0-11.46-4.23-11.46-5.9,0-11.49,12.66-14.23,27.94A116.84,116.84,0,0,0,485.36,216a14.55,14.55,0,0,1-8.94,3.42c-5.38,0-6.2-9-4.29-19.7,2.7-15.07,10.67-33.16,18.49-33.16,3,0,5.75.8,5.83,6.83,3.82-.6,5.85-2.61,6.25-4.82,0.54-3-1.93-6.43-7.31-6.43-16.07,0-30.49,17.47-36.94,34.67-8.19,12.44-21.4,22.82-30.35,22.82-8.62,0-10.16-11.65-7.85-24.32,2.64-14.47,10.3-29.95,18.53-29.95,2.74,0,4.57,3.62,3.4,12.87a8.47,8.47,0,0,0,2.19.2c3.52,0,5.53-2.41,6.08-5.43,1-5.22-2.2-12.26-8.6-12.26-15.81,0-30.29,17.28-36.52,34.41-9.72,14-16.15,19.88-19.91,19.86-5.58,0-5-13.38.34-32.53,1.41-5.09,3.28-10.91,5.29-16.72a4,4,0,0,0-3.92-2.21c-5.18,0-13.7,5.75-16.72,16.66-9.18,33.21-5.51,48.56,3.8,48.62,7.16,0,17.53-9.5,28.72-25.15,0,0.22-.1.45-0.14,0.67-2.38,13.07,1.45,26.27,14.65,26.27,11.59,0,26.94-11,38.67-26.16-0.21.91-.41,1.81-0.57,2.71-2.19,12.26.94,23.43,12.09,23.43,6.28,0,12.31-4.34,17.62-9,0,16.69,4.61,31.56,17.17,31.56,6,0,12.61-6,13.94-13.47a35.81,35.81,0,0,0,.44-6A13.29,13.29,0,0,1,514.17,234Zm-16.79-47.23c1-5.83,2.66-9.85,4.33-9.85s2.06,2.82,1.3,7a66.69,66.69,0,0,1-6.86,18.29A88.83,88.83,0,0,1,497.37,186.81ZM150.64,156.28c-15,2.23-28.23,7.06-30,15.62-1,5.05,4.13,22.15,1.51,34.76-3,14.23-12.74,22.22-20.85,22.18s-14.46-8-10.8-25.69c3-14.37,10.46-30.8,16.33-35.52-1.11-1-5.64-2.17-10.42-2.2-11.22,0-18,10-20.51,22.26-3.67,17.66,5.29,43.58,23.32,43.66,20.77,0.09,32.44-25.64,35-37.8,0.9-4.36,1.49-8.95,2.43-13.46C138.46,171.22,141.57,162.59,150.64,156.28Zm212.71-3.81c-13.07-.06-24.74,24.57-35,48.65l0.54-2.05a235.07,235.07,0,0,1,10.56-31.19,11.1,11.1,0,0,0-5.2-1.34c-8.75,0-15.36,11-17.82,20.31-2.56,9.71-3.82,41.6,4.07,41.63a9.52,9.52,0,0,0,4-1.1,44.1,44.1,0,0,1,.71-12.43c6.28-16.81,20.86-41.24,32.58-41.18a8.44,8.44,0,0,1,6.1,2.64,77.23,77.23,0,0,0,2.93-8.78C368.58,160.72,369.51,152.49,363.35,152.46Zm-38.2,9.13a3.5,3.5,0,0,0-.63-2.51,90.48,90.48,0,0,1-17.94,4.35c0.37-14.06.95-28.1,3.79-41.68,4.56-21.83,16.56-37.54,22.09-37.53,2.83,0,3,4.91,1.77,10.66-1.52,7.28-5.18,15.73-8.19,17.76,1.61,3.55,3.45,4.92,5.44,4.93,5.65,0,11.9-11.83,13.95-21.64,2.8-13.36-.38-20.14-6.26-20.16-10.12,0-28,19.9-36.45,60.51-1.77,8.47-3.37,17.54-5.19,26.92h-1.05c-9.72,0-18.41-2.17-21.36-8.31a34.7,34.7,0,0,0-3.05,9.32c-0.82,6.27,6,8.53,15.26,8.57a74,74,0,0,0,8.5-.54c-0.77,4.07-1.63,8.24-2.48,12.27q-0.5,2.39-1,4.78c-1.22,2.4-2.5,4.78-3.83,7-9.87,16.48-18.47,25.13-23.85,25.13-3.2,0-4.46-4.42-4.79-10.46,5.25-7.84,9-16.68,10.27-23.71,1.19-6.64.68-11.46-3.55-11.46-6.92,0-12.1,8.64-14,19.09a59.49,59.49,0,0,0-.27,20.1c-3.43,3.42-7.25,5.43-11.22,5.43-5.38,0-6.2-9-4.29-19.7,2.7-15.08,10.68-33.16,18.49-33.16,2.95,0,5.75.8,5.83,6.83,3.82-.6,5.85-2.61,6.25-4.82,0.54-3-1.93-6.43-7.31-6.43-18.31,0-34.47,22.65-39.15,41.77-5.12,7-9.1,10.75-11.59,10.75-7.52,0-6.76-19.74-2.4-44.21,6.37-35.72,20.34-81.71,27.19-92a29.94,29.94,0,0,0-3.82-.39c-5.89,0-11.6,3.16-17.12,14.41s-10.42,29.61-13.87,48.95a324.81,324.81,0,0,0-5.1,47.89c-1.28,2.52-2.61,5-4,7.39-7.72,12.94-18.75,24.12-27.78,24.12-6.9,0-9.5-6.47-9.49-14.9,11.54,0,24.32-18.82,26.65-31.77,1.23-6.86-.49-12-6.76-12-12.79,0-32.21,26.48-35.77,46.28-2.08,11.57,1.21,21.87,14.88,21.87,13.17,0,29.19-13,40.68-33.05,0.54-.9.75-1.4,1.27-2.31-1.73,21.23,4.14,34,7.55,34.48,4.92,0.68,11.64-9.55,18.36-19.16-1.15,10.79,4,21,14.23,21,7.69,0,13.7-5.42,19-12.5,1.11,4.94,3.37,12.71,7.77,13.68,8.57,1.9,20.52-16.64,29.54-35.58-3.47,14.62-7.64,28.69-13.06,40.77a8.34,8.34,0,0,0,3.47.86c7.65,0,17.81-10.28,21.74-29.07,2.74-13.12,3.43-26.41,3.84-39.54C316.51,168.32,324.75,164.6,325.14,161.59Zm-63,26.89c1.31-5.8,3.05-9.8,4.61-9.79s1.76,2.81.81,7a73.18,73.18,0,0,1-7.47,18.19A96,96,0,0,1,262.16,188.49ZM153.9,197.34c2.43-13.53,9.26-27.85,15.16-27.85,1.88,0,2.21,2.35,1.61,5.69-1.76,9.8-11.61,29-17.63,29A62,62,0,0,1,153.9,197.34Zm239-50.21c4.9-.23,11.12-5.14,12.95-13.75,1.58-7.37-1.61-10.64-5.85-10.44-4.9.23-11.12,5.14-13,13.74C385.51,144.07,388.7,147.33,392.94,147.13Z" transform="translate(-74.86 -75.78)"/></svg>